<svg width="14" height="15" viewBox="0 0 14 15" fill="none" xmlns="http://www.w3.org/2000/svg">
<path d="M1 15C0.447716 15 0 14.5523 0 14V13.1932C0 12.641 0.447715 12.1932 1 12.1932H13C13.5523 12.1932 14 12.641 14 13.1932V14C14 14.5523 13.5523 15 13 15H1ZM1.83723 10.852C1.56109 10.852 1.33723 10.6281 1.33723 10.352V8.67962C1.33723 8.40708 1.44846 8.14635 1.6452 7.95775L7.71407 2.13977L10.4311 4.7428L4.34014 10.5743C4.15401 10.7525 3.90627 10.852 3.64859 10.852H1.83723ZM11.16 4.05323L8.44718 1.45021L9.73647 0.215029C9.87875 0.0675374 10.0574 -0.00407918 10.2725 0.000179251C10.4876 0.00442651 10.6663 0.0760431 10.8085 0.215029L12.4535 1.79098C12.5958 1.9273 12.667 2.09501 12.667 2.29413C12.667 2.49325 12.5958 2.66655 12.4535 2.81405L11.16 4.05323Z" fill="#FA713F"/>
</svg>
