<svg width="62" height="59" viewBox="0 0 62 59" fill="none" xmlns="http://www.w3.org/2000/svg">
<rect x="0.5" y="0.5" width="60.878" height="58" rx="29" fill="white" stroke="#E6E6E6"/>
<path d="M42.5972 36.5154L34.9498 29.5001M28.3714 29.5001L20.7241 36.5154M20.1484 23.6541L29.548 30.3366C30.3092 30.8778 30.6898 31.1484 31.1038 31.2531C31.4694 31.3457 31.8518 31.3457 32.2175 31.2531C32.6315 31.1484 33.012 30.8778 33.7732 30.3366L43.1728 23.6541M25.6743 38.8538H37.647C39.5813 38.8538 40.5483 38.8538 41.2871 38.4715C41.937 38.1352 42.4653 37.5987 42.7964 36.9386C43.1728 36.1882 43.1728 35.2061 43.1728 33.2416V25.7587C43.1728 23.7942 43.1728 22.812 42.7964 22.0617C42.4653 21.4017 41.937 20.8651 41.2871 20.5288C40.5483 20.1465 39.5813 20.1465 37.647 20.1465H25.6743C23.7401 20.1465 22.7729 20.1465 22.0342 20.5288C21.3843 20.8651 20.856 21.4017 20.5249 22.0617C20.1484 22.812 20.1484 23.7942 20.1484 25.7587V33.2416C20.1484 35.2061 20.1484 36.1882 20.5249 36.9386C20.856 37.5987 21.3843 38.1352 22.0342 38.4715C22.7729 38.8538 23.7401 38.8538 25.6743 38.8538Z" stroke="black" stroke-width="1.75" stroke-linecap="round" stroke-linejoin="round"/>
</svg>
