<svg width="21" height="20" viewBox="0 0 21 20" fill="none" xmlns="http://www.w3.org/2000/svg">
<path d="M10.5968 14.0847C8.1563 14.0847 6.17791 12.1016 6.17791 9.65538C6.17791 7.20914 8.1563 5.22607 10.5968 5.22607C13.0372 5.22607 15.0156 7.20914 15.0156 9.65538C15.0156 12.1016 13.0372 14.0847 10.5968 14.0847Z" fill="#F0592A"/>
<path d="M10.5954 17.5398C12.151 17.5398 13.6718 17.0774 14.9652 16.2111C16.2587 15.3448 17.2669 14.1134 17.8622 12.6728C18.4575 11.2322 18.6133 9.64691 18.3098 8.11753C18.0063 6.58815 17.2572 5.18333 16.1572 4.08071C15.0571 2.97809 13.6556 2.22719 12.1299 1.92298C10.6041 1.61877 9.02259 1.7749 7.58535 2.37163C6.1481 2.96837 4.91967 3.9789 4.05539 5.27545C3.19111 6.57199 2.7298 8.09631 2.7298 9.65566C2.73214 11.7459 3.56158 13.75 5.03616 15.228C6.51073 16.7061 8.51001 17.5375 10.5954 17.5398ZM10.5954 3.36604C11.8364 3.36604 13.0496 3.73492 14.0814 4.42603C15.1133 5.11714 15.9176 6.09945 16.3925 7.24872C16.8674 8.398 16.9917 9.66263 16.7496 10.8827C16.5075 12.1028 15.9098 13.2235 15.0323 14.1031C14.1548 14.9827 13.0367 15.5817 11.8195 15.8244C10.6023 16.0671 9.34068 15.9426 8.19411 15.4665C7.04755 14.9905 6.06756 14.1843 5.37808 13.15C4.6886 12.1157 4.32059 10.8996 4.32059 9.65566C4.32246 7.98812 4.98415 6.38942 6.1605 5.2103C7.33684 4.03117 8.93177 3.36791 10.5954 3.36604Z" fill="#F0592A"/>
<path d="M10.599 17.4069C12.1285 17.4069 13.6236 16.9523 14.8953 16.1006C16.1669 15.2488 17.1581 14.0382 17.7434 12.6219C18.3287 11.2055 18.4818 9.64699 18.1834 8.14339C17.8851 6.63978 17.1486 5.25864 16.0671 4.1746C14.9856 3.09056 13.6077 2.35232 12.1077 2.05324C10.6076 1.75415 9.05275 1.90766 7.63973 2.49433C6.22671 3.08101 5.01898 4.07451 4.16927 5.3492C3.31955 6.6239 2.86602 8.12253 2.86602 9.65559C2.86836 11.7106 3.68384 13.6808 5.13355 15.134C6.58326 16.5871 8.54882 17.4045 10.599 17.4069ZM10.599 3.23309C11.8663 3.23309 13.1051 3.60977 14.1588 4.31548C15.2124 5.02119 16.0337 6.02425 16.5186 7.19781C17.0036 8.37136 17.1305 9.66271 16.8833 10.9086C16.636 12.1544 16.0258 13.2988 15.1297 14.197C14.2336 15.0952 13.0919 15.7069 11.849 15.9547C10.6061 16.2025 9.31783 16.0753 8.14704 15.5892C6.97625 15.1031 5.97556 14.2799 5.27151 13.2237C4.56746 12.1676 4.19168 10.9258 4.19168 9.65559C4.19355 7.95281 4.86921 6.32032 6.07041 5.11627C7.27162 3.91223 8.90026 3.23497 10.599 3.23309Z" fill="#F0592A"/>
<path d="M10.5991 4.25214C10.8101 4.25214 11.0124 4.16814 11.1616 4.01862C11.3107 3.8691 11.3945 3.66631 11.3945 3.45486V0.797275C11.3945 0.585825 11.3107 0.383035 11.1616 0.233517C11.0124 0.0839985 10.8101 0 10.5991 0C10.3882 0 10.1859 0.0839985 10.0367 0.233517C9.88754 0.383035 9.80374 0.585825 9.80374 0.797275V3.45486C9.80374 3.66631 9.88754 3.8691 10.0367 4.01862C10.1859 4.16814 10.3882 4.25214 10.5991 4.25214Z" fill="#F0592A"/>
<path d="M10.595 4.1187C10.7708 4.1187 10.9394 4.0487 11.0637 3.9241C11.188 3.79951 11.2578 3.63051 11.2578 3.45431V0.79672C11.2578 0.620512 11.188 0.45152 11.0637 0.326921C10.9394 0.202323 10.7708 0.132324 10.595 0.132324C10.4192 0.132324 10.2506 0.202323 10.1263 0.326921C10.002 0.45152 9.93215 0.620512 9.93215 0.79672V3.45431C9.93215 3.63051 10.002 3.79951 10.1263 3.9241C10.2506 4.0487 10.4192 4.1187 10.595 4.1187Z" fill="#F0592A"/>
<path d="M4.41164 10.4525C4.62259 10.4525 4.8249 10.3685 4.97407 10.2189C5.12323 10.0694 5.20703 9.86664 5.20703 9.65519C5.20703 9.44373 5.12323 9.24094 4.97407 9.09143C4.8249 8.94191 4.62259 8.85791 4.41164 8.85791H1.76032C1.54937 8.85791 1.34706 8.94191 1.19789 9.09143C1.04873 9.24094 0.964927 9.44373 0.964927 9.65519C0.964927 9.86664 1.04873 10.0694 1.19789 10.2189C1.34706 10.3685 1.54937 10.4525 1.76032 10.4525H4.41164Z" fill="#F0592A"/>
<path d="M1.76007 10.32H4.41139C4.58718 10.32 4.75578 10.25 4.88008 10.1254C5.00439 10.0008 5.07422 9.83182 5.07422 9.65561C5.07422 9.4794 5.00439 9.31041 4.88008 9.18581C4.75578 9.06121 4.58718 8.99121 4.41139 8.99121H1.76007C1.58428 8.99121 1.41569 9.06121 1.29138 9.18581C1.16708 9.31041 1.09725 9.4794 1.09725 9.65561C1.09725 9.83182 1.16708 10.0008 1.29138 10.1254C1.41569 10.25 1.58428 10.32 1.76007 10.32Z" fill="#F0592A"/>
<path d="M10.5991 19.3117C10.8101 19.3117 11.0124 19.2277 11.1616 19.0782C11.3107 18.9287 11.3945 18.7259 11.3945 18.5144V15.8568C11.3945 15.7521 11.374 15.6485 11.334 15.5517C11.294 15.455 11.2354 15.3671 11.1616 15.2931C11.0877 15.2191 11 15.1603 10.9035 15.1203C10.807 15.0802 10.7036 15.0596 10.5991 15.0596C10.4947 15.0596 10.3913 15.0802 10.2948 15.1203C10.1983 15.1603 10.1106 15.2191 10.0367 15.2931C9.96285 15.3671 9.90426 15.455 9.86429 15.5517C9.82432 15.6485 9.80374 15.7521 9.80374 15.8568V18.5144C9.80374 18.7259 9.88754 18.9287 10.0367 19.0782C10.1859 19.2277 10.3882 19.3117 10.5991 19.3117Z" fill="#F0592A"/>
<path d="M10.595 19.1783C10.7708 19.1783 10.9394 19.1083 11.0637 18.9837C11.188 18.8591 11.2578 18.6901 11.2578 18.5139V15.8563C11.2578 15.6801 11.188 15.5111 11.0637 15.3865C10.9394 15.2619 10.7708 15.1919 10.595 15.1919C10.4192 15.1919 10.2506 15.2619 10.1263 15.3865C10.002 15.5111 9.93215 15.6801 9.93215 15.8563V18.5139C9.93215 18.6901 10.002 18.8591 10.1263 18.9837C10.2506 19.1083 10.4192 19.1783 10.595 19.1783Z" fill="#F0592A"/>
<path d="M19.4351 10.4525C19.5395 10.4525 19.643 10.4318 19.7395 10.3918C19.836 10.3517 19.9236 10.293 19.9975 10.2189C20.0714 10.1449 20.13 10.057 20.1699 9.96029C20.2099 9.86356 20.2305 9.75989 20.2305 9.65519C20.2305 9.55049 20.2099 9.44681 20.1699 9.35008C20.13 9.25335 20.0714 9.16546 19.9975 9.09143C19.9236 9.01739 19.836 8.95867 19.7395 8.9186C19.643 8.87853 19.5395 8.85791 19.4351 8.85791H16.7838C16.5728 8.85791 16.3705 8.94191 16.2213 9.09143C16.0722 9.24094 15.9884 9.44373 15.9884 9.65519C15.9884 9.86664 16.0722 10.0694 16.2213 10.2189C16.3705 10.3685 16.5728 10.4525 16.7838 10.4525H19.4351Z" fill="#F0592A"/>
</svg>
