<svg width="48" height="48" viewBox="0 0 48 48" fill="none" xmlns="http://www.w3.org/2000/svg">
<g id="Group 427322501">
<circle id="Ellipse 159" cx="24" cy="24" r="23.5" fill="white" stroke="#E5E5E5"/>
<g id="Group 427322500">
<g id="Group 427322499">
<path id="Vector" d="M39.5273 19.0425L35.9648 21.0019L32.4023 24.3862V36H37.3898C38.5705 36 39.5273 35.0431 39.5273 33.8625V19.0425Z" fill="#4CAF50"/>
<path id="Vector_2" d="M9.60156 19.0425L12.1765 20.2609L16.7266 24.3862V36H11.7391C10.5584 36 9.60156 35.0431 9.60156 33.8625V19.0425Z" fill="#1E88E5"/>
<path id="Vector_3" d="M32.4031 15.48L24.5656 21.3581L16.7281 15.48L16.0156 19.6125L16.7281 24.3862L24.5656 30.2644L32.4031 24.3862L33.1156 19.6125L32.4031 15.48Z" fill="#E53935"/>
<path id="Vector_4" d="M9.60156 16.2623V19.0425L16.7266 24.3862V15.48L14.5007 13.812C13.9706 13.4144 13.3265 13.2 12.6639 13.2C10.9724 13.2 9.60156 14.5708 9.60156 16.2623Z" fill="#C62828"/>
<path id="Vector_5" d="M39.5273 16.2623V19.0425L32.4023 24.3862V15.48L34.6282 13.812C35.1583 13.4144 35.8024 13.2 36.465 13.2C38.1565 13.2 39.5273 14.5708 39.5273 16.2623Z" fill="#FBC02D"/>
</g>
</g>
</g>
</svg>
